<?xml version="1.0" encoding="UTF-8"?>
<svg version="1.1" xmlns="http://www.w3.org/2000/svg" width="320" height="160">
<path d="M0 0 C105.6 0 211.2 0 320 0 C320 52.8 320 105.6 320 160 C214.4 160 108.8 160 0 160 C0 107.2 0 54.4 0 0 Z " fill="#C8102E" transform="translate(0,0)"/>
<path d="M0 0 C47.52 0 95.04 0 144 0 C144 21.12 144 42.24 144 64 C96.48 64 48.96 64 0 64 C0 42.88 0 21.76 0 0 Z " fill="#FBFAFB" transform="translate(176,96)"/>
<path d="M0 0 C47.52 0 95.04 0 144 0 C144 21.12 144 42.24 144 64 C96.48 64 48.96 64 0 64 C0 42.88 0 21.76 0 0 Z " fill="#FBFAFB" transform="translate(0,96)"/>
<path d="M0 0 C47.52 0 95.04 0 144 0 C144 21.12 144 42.24 144 64 C96.48 64 48.96 64 0 64 C0 42.88 0 21.76 0 0 Z " fill="#FBFAFB" transform="translate(176,0)"/>
<path d="M0 0 C47.52 0 95.04 0 144 0 C144 21.12 144 42.24 144 64 C96.48 64 48.96 64 0 64 C0 42.88 0 21.76 0 0 Z " fill="#FBFAFB" transform="translate(0,0)"/>
<path d="M0 0 C3.6970276 1.23234253 6.75417983 2.25209577 10.13827515 3.94888306 C10.903797 4.33026932 11.66931885 4.71165558 12.45803833 5.104599 C13.68803055 5.72498802 13.68803055 5.72498802 14.94287109 6.35791016 C15.8215686 6.79711288 16.70026611 7.23631561 17.60559082 7.68882751 C20.49678656 9.1351196 23.38511052 10.58705099 26.2734375 12.0390625 C28.28250942 13.04546438 30.29175878 14.05151214 32.30117798 15.05722046 C37.58008562 17.70048573 42.8565727 20.34854784 48.13256836 22.99761963 C53.52051762 25.7018379 58.91074468 28.40150775 64.30078125 31.1015625 C74.86942043 36.39659521 85.43550777 41.69669881 96 47 C96 47.33 96 47.66 96 48 C64.32 48 32.64 48 0 48 C0 32.16 0 16.32 0 0 Z " fill="#012169" transform="translate(187,112)"/>
<path d="M0 0 C0 15.84 0 31.68 0 48 C-31.68 48 -63.36 48 -96 48 C-93.24436661 45.93327496 -91.10224876 44.42585354 -88.11569214 42.93086243 C-87.35580994 42.5481015 -86.59592773 42.16534058 -85.8130188 41.77098083 C-84.98897552 41.36098343 -84.16493225 40.95098602 -83.31591797 40.52856445 C-82.4407251 40.0892157 -81.56553223 39.64986694 -80.66381836 39.19720459 C-77.77527227 37.74853603 -74.88384474 36.30572847 -71.9921875 34.86328125 C-69.98475623 33.85889209 -67.97744378 32.85426542 -65.97024536 31.84941101 C-61.76677908 29.74620416 -57.56188034 27.64589626 -53.35595703 25.54760742 C-47.95474865 22.8527106 -42.55717398 20.15062573 -37.16064262 17.44637775 C-33.01867893 15.37179026 -28.87482518 13.30100184 -24.73038101 11.23137474 C-22.73859991 10.23615292 -20.74741602 9.23973498 -18.75683212 8.24212074 C-15.98156487 6.85195945 -13.20380159 5.46692074 -10.42529297 4.08325195 C-9.59720123 3.66718185 -8.7691095 3.25111176 -7.91592407 2.82243347 C-7.16168152 2.44813202 -6.40743896 2.07383057 -5.63034058 1.68818665 C-4.97368849 1.36023763 -4.3170364 1.03228861 -3.64048576 0.69440174 C-2 0 -2 0 0 0 Z " fill="#012169" transform="translate(133,112)"/>
<path d="M0 0 C31.68 0 63.36 0 96 0 C93.24436661 2.06672504 91.10224876 3.57414646 88.11569214 5.06913757 C87.35580994 5.4518985 86.59592773 5.83465942 85.8130188 6.22901917 C84.98897552 6.63901657 84.16493225 7.04901398 83.31591797 7.47143555 C82.4407251 7.9107843 81.56553223 8.35013306 80.66381836 8.80279541 C77.77527227 10.25146397 74.88384474 11.69427153 71.9921875 13.13671875 C69.98475623 14.14110791 67.97744378 15.14573458 65.97024536 16.15058899 C61.76677908 18.25379584 57.56188034 20.35410374 53.35595703 22.45239258 C47.95474865 25.1472894 42.55717398 27.84937427 37.16064262 30.55362225 C33.01867893 32.62820974 28.87482518 34.69899816 24.73038101 36.76862526 C22.73859991 37.76384708 20.74741602 38.76026502 18.75683212 39.75787926 C15.98156487 41.14804055 13.20380159 42.53307926 10.42529297 43.91674805 C9.59720123 44.33281815 8.7691095 44.74888824 7.91592407 45.17756653 C7.16168152 45.55186798 6.40743896 45.92616943 5.63034058 46.31181335 C4.64536244 46.80373688 4.64536244 46.80373688 3.64048576 47.30559826 C2 48 2 48 0 48 C0 32.16 0 16.32 0 0 Z " fill="#012169" transform="translate(187,0)"/>
<path d="M0 0 C31.68 0 63.36 0 96 0 C96 15.84 96 31.68 96 48 C92.3029724 46.76765747 89.24582017 45.74790423 85.86172485 44.05111694 C85.096203 43.66973068 84.33068115 43.28834442 83.54196167 42.895401 C82.72196686 42.48180832 81.90197205 42.06821564 81.05712891 41.64208984 C80.1784314 41.20288712 79.29973389 40.76368439 78.39440918 40.31117249 C75.50321344 38.8648804 72.61488948 37.41294901 69.7265625 35.9609375 C67.71749058 34.95453562 65.70824122 33.94848786 63.69882202 32.94277954 C58.41991438 30.29951427 53.1434273 27.65145216 47.86743164 25.00238037 C42.47948238 22.2981621 37.08925532 19.59849225 31.69921875 16.8984375 C21.13057957 11.60340479 10.56449223 6.30330119 0 1 C0 0.67 0 0.34 0 0 Z " fill="#012169" transform="translate(37,0)"/>
<path d="M0 0 C-2.60601337 2.03189131 -5.18655242 3.73313931 -8.11590576 5.25895691 C-8.92813599 5.6837886 -9.74036621 6.1086203 -10.57720947 6.54632568 C-11.46019714 7.00307678 -12.34318481 7.45982788 -13.25292969 7.93041992 C-14.65901489 8.66259483 -14.65901489 8.66259483 -16.09350586 9.40956116 C-24.77301465 13.91848086 -33.48235956 18.36964168 -42.20017624 22.80396557 C-48.04276636 25.77646352 -53.87468167 28.7665012 -59.68457031 31.80249023 C-65.32170986 34.74767439 -70.98188542 37.64336341 -76.66049957 40.50771523 C-78.80404664 41.59892096 -80.93931885 42.70656549 -83.0651474 43.83189964 C-98.38455966 51.91991625 -110.67378971 54.63550089 -128 53 C-125.39398663 50.96810869 -122.81344758 49.26686069 -119.88409424 47.74104309 C-119.07186401 47.3162114 -118.25963379 46.8913797 -117.42279053 46.45367432 C-116.53980286 45.99692322 -115.65681519 45.54017212 -114.74707031 45.06958008 C-113.80968018 44.58146347 -112.87229004 44.09334686 -111.90649414 43.59043884 C-103.22698535 39.08151914 -94.51764044 34.63035832 -85.79982376 30.19603443 C-79.95723364 27.22353648 -74.12531833 24.2334988 -68.31542969 21.19750977 C-62.67829014 18.25232561 -57.01811458 15.35663659 -51.33950043 12.49228477 C-49.19595336 11.40107904 -47.06068115 10.29343451 -44.9348526 9.16810036 C-29.61544034 1.08008375 -17.32621029 -1.63550089 0 0 Z " fill="#C91532" transform="translate(129,107)"/>
<path d="M0 0 C-2.60601337 2.03189131 -5.18655242 3.73313931 -8.11590576 5.25895691 C-8.92813599 5.6837886 -9.74036621 6.1086203 -10.57720947 6.54632568 C-11.46019714 7.00307678 -12.34318481 7.45982788 -13.25292969 7.93041992 C-14.65901489 8.66259483 -14.65901489 8.66259483 -16.09350586 9.40956116 C-24.77301465 13.91848086 -33.48235956 18.36964168 -42.20017624 22.80396557 C-48.04276636 25.77646352 -53.87468167 28.7665012 -59.68457031 31.80249023 C-65.32170986 34.74767439 -70.98188542 37.64336341 -76.66049957 40.50771523 C-78.80404664 41.59892096 -80.93931885 42.70656549 -83.0651474 43.83189964 C-98.38455966 51.91991625 -110.67378971 54.63550089 -128 53 C-125.39398663 50.96810869 -122.81344758 49.26686069 -119.88409424 47.74104309 C-119.07186401 47.3162114 -118.25963379 46.8913797 -117.42279053 46.45367432 C-116.53980286 45.99692322 -115.65681519 45.54017212 -114.74707031 45.06958008 C-113.80968018 44.58146347 -112.87229004 44.09334686 -111.90649414 43.59043884 C-103.22698535 39.08151914 -94.51764044 34.63035832 -85.79982376 30.19603443 C-79.95723364 27.22353648 -74.12531833 24.2334988 -68.31542969 21.19750977 C-62.67829014 18.25232561 -57.01811458 15.35663659 -51.33950043 12.49228477 C-49.19595336 11.40107904 -47.06068115 10.29343451 -44.9348526 9.16810036 C-29.61544034 1.08008375 -17.32621029 -1.63550089 0 0 Z " fill="#C91532" transform="translate(319,0)"/>
<path d="M0 0 C22.77 0 45.54 0 69 0 C69 11.55 69 23.1 69 35 C53.81336743 27.8857454 38.80041254 20.46004475 23.8125 12.9375 C21.49032911 11.77389945 19.16806405 10.61048683 16.84570312 9.44726562 C11.22938437 6.63366966 5.61422054 3.8177802 0 1 C0 0.67 0 0.34 0 0 Z " fill="#022269" transform="translate(251,107)"/>
<path d="M0 0 C22.77 0 45.54 0 69 0 C65.56446047 2.57665465 62.5008276 4.37346165 58.68676758 6.27807617 C58.06356125 6.59062851 57.44035492 6.90318085 56.79826355 7.22520447 C54.74894999 8.25170566 52.69682499 9.27244063 50.64453125 10.29296875 C49.21760214 11.00583704 47.79082095 11.7190015 46.36418152 12.43244934 C43.38049328 13.92351278 40.39548335 15.41188461 37.40942383 16.89819336 C33.57373004 18.80751785 29.74071273 20.72214262 25.9085741 22.63859081 C22.96611706 24.10968373 20.02262444 25.5786939 17.07877159 27.04699135 C15.66427228 27.75264582 14.25001761 28.45879087 12.83600807 29.16542625 C10.86668757 30.14900825 8.8960757 31.12995035 6.92504883 32.11010742 C5.24104729 32.94924934 5.24104729 32.94924934 3.52302551 33.80534363 C1 35 1 35 0 35 C0 23.45 0 11.9 0 0 Z " fill="#022269" transform="translate(0,107)"/>
<path d="M0 0 C0 11.55 0 23.1 0 35 C-22.77 35 -45.54 35 -69 35 C-65.56446047 32.42334535 -62.5008276 30.62653835 -58.68676758 28.72192383 C-58.06356125 28.40937149 -57.44035492 28.09681915 -56.79826355 27.77479553 C-54.74894999 26.74829434 -52.69682499 25.72755937 -50.64453125 24.70703125 C-49.21760214 23.99416296 -47.79082095 23.2809985 -46.36418152 22.56755066 C-43.38049328 21.07648722 -40.39548335 19.58811539 -37.40942383 18.10180664 C-33.57373004 16.19248215 -29.74071273 14.27785738 -25.9085741 12.36140919 C-22.96611706 10.89031627 -20.02262444 9.4213061 -17.07877159 7.95300865 C-15.66427228 7.24735418 -14.25001761 6.54120913 -12.83600807 5.83457375 C-10.86668757 4.85099175 -8.8960757 3.87004965 -6.92504883 2.88989258 C-5.24104729 2.05075066 -5.24104729 2.05075066 -3.52302551 1.19465637 C-1 0 -1 0 0 0 Z " fill="#022269" transform="translate(320,18)"/>
<path d="M0 0 C15.18663257 7.1142546 30.19958746 14.53995525 45.1875 22.0625 C47.50967089 23.22610055 49.83193595 24.38951317 52.15429688 25.55273438 C57.77061563 28.36633034 63.38577946 31.1822198 69 34 C69 34.33 69 34.66 69 35 C46.23 35 23.46 35 0 35 C0 23.45 0 11.9 0 0 Z " fill="#022269" transform="translate(0,18)"/>
<path d="M0 0 C23.76347443 -4.39112667 42.39226896 7.75349376 62.67462158 18.48419189 C67.3130085 20.92404059 71.98122976 23.30541743 76.64648438 25.69335938 C83.42086965 29.17134182 90.18422902 32.66915722 96.92358398 36.21459961 C97.63034271 36.58503387 98.33710144 36.95546814 99.0652771 37.33712769 C103.88034073 39.88034073 103.88034073 39.88034073 105 41 C105.14346646 44.99984478 105.04212316 48.99829982 105 53 C91.68089718 46.75854273 78.48004008 40.30827438 65.33203125 33.71484375 C63.43113409 32.76345932 61.53014657 31.81225539 59.6290741 30.86122131 C54.69483357 28.39221803 49.76180029 25.92081258 44.82904053 23.44885254 C39.76763332 20.91297723 34.70505213 18.37944786 29.64257812 15.84570312 C19.76058794 10.89939172 9.87987535 5.95053412 0 1 C0 0.67 0 0.34 0 0 Z " fill="#C91532" transform="translate(215,107)"/>
<path d="M0 0 C13.31910282 6.24145727 26.51995992 12.69172562 39.66796875 19.28515625 C41.56886591 20.23654068 43.46985343 21.18774461 45.3709259 22.13877869 C50.30516643 24.60778197 55.23819971 27.07918742 60.17095947 29.55114746 C65.23236668 32.08702277 70.29494787 34.62055214 75.35742188 37.15429688 C85.23941206 42.10060828 95.12012465 47.04946588 105 52 C105 52.33 105 52.66 105 53 C81.23652557 57.39112667 62.60773104 45.24650624 42.32537842 34.51580811 C37.6869915 32.07595941 33.01877024 29.69458257 28.35351562 27.30664062 C21.57913035 23.82865818 14.81577098 20.33084278 8.07641602 16.78540039 C7.01627792 16.22974899 7.01627792 16.22974899 5.9347229 15.66287231 C1.11965927 13.11965927 1.11965927 13.11965927 0 12 C-0.14346646 8.00015522 -0.04212316 4.00170018 0 0 Z " fill="#C91532" transform="translate(0,0)"/>
</svg>
